<svg width="28" height="24" viewBox="0 0 28 24" fill="none" xmlns="http://www.w3.org/2000/svg">
<path d="M26.25 10.2869H5.495L11.8475 2.81332C12.1445 2.46327 12.2875 2.01197 12.2448 1.55871C12.2021 1.10545 11.9774 0.687351 11.62 0.396397C11.2626 0.105443 10.8019 -0.0345367 10.3391 0.00725335C9.87639 0.0490434 9.44954 0.26918 9.1525 0.619234L0.4025 10.904C0.343631 10.9858 0.290989 11.0718 0.245 11.1611C0.245 11.2469 0.245 11.2983 0.1225 11.384C0.0431789 11.5805 0.00164696 11.7897 0 12.0011C0.00164696 12.2124 0.0431789 12.4216 0.1225 12.6182C0.1225 12.7039 0.1225 12.7553 0.245 12.841C0.290989 12.9304 0.343631 13.0163 0.4025 13.0981L9.1525 23.3829C9.31704 23.5764 9.52308 23.732 9.75598 23.8387C9.98888 23.9453 10.2429 24.0004 10.5 24C10.9089 24.0008 11.3052 23.8613 11.62 23.6057C11.7972 23.4618 11.9437 23.2851 12.051 23.0857C12.1584 22.8862 12.2246 22.668 12.2457 22.4435C12.2668 22.219 12.2425 21.9926 12.1742 21.7773C12.1059 21.562 11.9949 21.362 11.8475 21.1888L5.495 13.7152H26.25C26.7141 13.7152 27.1593 13.5346 27.4874 13.2131C27.8156 12.8917 28 12.4557 28 12.0011C28 11.5465 27.8156 11.1105 27.4874 10.789C27.1593 10.4675 26.7141 10.2869 26.25 10.2869Z" fill="#CBCBCB"/>
</svg>
