<svg width="66" height="66" viewBox="0 0 66 66" fill="none" xmlns="http://www.w3.org/2000/svg">
<rect opacity="0.2" width="66" height="66" rx="8" fill="#B4F2AA"/>
<g clip-path="url(#clip0_22_771)">
<path d="M28.5 34.5C31.815 34.5 34.5 31.815 34.5 28.5C34.5 25.185 31.815 22.5 28.5 22.5C25.185 22.5 22.5 25.185 22.5 28.5C22.5 31.815 25.185 34.5 28.5 34.5ZM28.5 25.5C30.15 25.5 31.5 26.85 31.5 28.5C31.5 30.15 30.15 31.5 28.5 31.5C26.85 31.5 25.5 30.15 25.5 28.5C25.5 26.85 26.85 25.5 28.5 25.5ZM28.5 37.5C24.495 37.5 16.5 39.51 16.5 43.5V46.5H40.5V43.5C40.5 39.51 32.505 37.5 28.5 37.5ZM19.5 43.5C19.83 42.42 24.465 40.5 28.5 40.5C32.55 40.5 37.2 42.435 37.5 43.5H19.5ZM37.62 25.575C38.88 27.345 38.88 29.64 37.62 31.41L40.14 33.945C43.17 30.915 43.17 26.34 40.14 23.04L37.62 25.575ZM45.105 18L42.66 20.445C46.815 24.975 46.815 31.785 42.66 36.555L45.105 39C50.955 33.165 50.97 24.075 45.105 18Z" fill="#7ED957"/>
</g>
<defs>
<clipPath id="clip0_22_771">
<rect width="36" height="36" fill="white" transform="translate(15 15)"/>
</clipPath>
</defs>
</svg>
