<svg width="66" height="66" viewBox="0 0 66 66" fill="none" xmlns="http://www.w3.org/2000/svg">
<rect opacity="0.2" width="66" height="66" rx="8" fill="#F2B5AA"/>
<g clip-path="url(#clip0_22_823)">
<path d="M21 42H45C46.65 42 47.985 40.65 47.985 39L48 22.5C48 20.85 46.65 19.5 45 19.5H21C19.35 19.5 18 20.85 18 22.5V39C18 40.65 19.35 42 21 42ZM21 22.5H45V39H21V22.5Z" fill="#F2B5AA"/>
<path d="M49.5 43.5H16.5V46.5H49.5V43.5Z" fill="#F2B5AA"/>
<path d="M35.9545 26.295C33.8995 24.24 30.5845 24.24 28.5295 26.295C26.4745 28.35 26.4745 31.665 28.5295 33.72C30.2995 35.49 33.0295 35.73 35.0695 34.425L38.2045 37.56L39.7945 35.97L36.6595 32.835C37.9645 30.795 37.7395 28.065 35.9545 26.295ZM34.3645 32.115C33.1945 33.285 31.2895 33.285 30.1195 32.115C28.9495 30.945 28.9495 29.04 30.1195 27.87C31.2895 26.7 33.1945 26.7 34.3645 27.87C35.5345 29.055 35.5345 30.945 34.3645 32.115Z" fill="#F2B5AA"/>
</g>
<defs>
<clipPath id="clip0_22_823">
<rect width="36" height="36" fill="white" transform="translate(15 15)"/>
</clipPath>
</defs>
</svg>
